<svg preserveAspectRatio="none" overflow="visible" style="display: block;" width="24.0302" height="24" viewBox="0 0 24.0302 24" fill="none" xmlns="http://www.w3.org/2000/svg">
<path id="Icon Path / Partner Grid" d="M0.396013 7.97525H5.37642V24H0.396013V7.97525ZM2.88759 0C3.45882 2.59061e-07 4.01721 0.169424 4.49214 0.486838C4.96706 0.804252 5.33716 1.25539 5.55564 1.78319C5.77411 2.31099 5.83113 2.89173 5.71949 3.45194C5.60785 4.01216 5.33256 4.52667 4.92845 4.9304C4.52434 5.33412 4.00956 5.60892 3.44924 5.72003C2.88893 5.83114 2.30824 5.77356 1.78065 5.55459C1.25306 5.33561 0.802272 4.96507 0.48531 4.48985C0.168349 4.01462 -0.000542717 3.45607 1.31017e-06 2.88484C0.000730225 2.11948 0.305279 1.38572 0.846728 0.844783C1.38818 0.303849 2.12223 -3.47102e-07 2.88759 0ZM8.50052 7.97525H13.2747V10.1753H13.3407C14.0062 8.91578 15.6287 7.58749 18.0516 7.58749C23.0952 7.57649 24.0302 10.8958 24.0302 15.1997V24H19.0498V16.2035C19.0498 14.3472 19.0168 11.9574 16.462 11.9574C13.9072 11.9574 13.4727 13.9814 13.4727 16.0825V24H8.50052V7.97525Z" fill="white"/>
</svg>
